<?xml version="1.0" standalone="no"?>
<!DOCTYPE svg PUBLIC "-//W3C//DTD SVG 20010904//EN"
 "http://www.w3.org/TR/2001/REC-SVG-20010904/DTD/svg10.dtd">
<svg version="1.0" xmlns="http://www.w3.org/2000/svg"
 width="400.000000pt" height="400.000000pt" viewBox="0 0 400.000000 400.000000"
 preserveAspectRatio="xMidYMid meet">
<metadata>
Created by potrace 1.11, written by Peter Selinger 2001-2013
</metadata>
<g transform="translate(0.000000,400.000000) scale(0.100000,-0.100000)"
fill="#000000" stroke="none">
<path d="M870 3384 c-37 -14 -108 -79 -422 -392 -423 -421 -425 -423 -415
-539 3 -42 13 -76 30 -105 38 -64 1785 -1805 1819 -1814 16 -3 38 -4 51 0 53
13 52 -12 55 996 l2 935 -444 445 c-245 244 -462 453 -482 463 -51 26 -138 31
-194 11z"/>
<path d="M2965 3387 c-16 -6 -43 -20 -60 -29 -29 -16 -865 -849 -865 -862 0
-3 225 -7 500 -8 325 -2 500 -7 500 -13 0 -7 -180 -11 -515 -13 l-515 -2 0
-920 c0 -823 2 -924 16 -960 18 -44 44 -57 92 -46 34 9 1804 1774 1830 1826
25 51 24 184 -2 225 -34 54 -749 765 -791 787 -47 25 -147 33 -190 15z"/>
</g>
</svg>
